<?xml version="1.0" encoding="UTF-8"?>
<svg id="Layer_1" data-name="Layer 1" xmlns="http://www.w3.org/2000/svg" viewBox="0 0 3380 1080">
  <defs>
    <style>
      .cls-1, .cls-2 {
        fill: #d2232a;
      }

      .cls-2 {
        opacity: .5;
      }
    </style>
  </defs>
  <path class="cls-2" d="m878.82,177.86c-11.76,11.83-23.52,23.64-35.3,35.45-11.77,11.8-23.54,23.6-35.32,35.39,76.23,72.83,123.73,175.48,123.73,289.24,0,220.91-179.09,400-400,400-113.45,0-215.85-47.24-288.65-123.11-11.79,11.79-23.59,23.57-35.4,35.34-11.81,11.77-23.62,23.53-35.44,35.27,90.91,94.03,218.37,152.49,359.49,152.49,276.14,0,500-223.86,500-500,0-141.43-58.72-269.13-153.11-360.08Z"/>
  <path class="cls-1" d="m531.85,87.94c.03-16.67.07-33.33.13-50-.01,0-.03,0-.04,0-275.4,0-498.78,222.66-499.98,497.78,16.67-.04,33.33-.07,50-.09,16.67-.02,33.33-.03,50-.04h0c8.07,0,16.15,0,24.22-.01,8.55,0,17.1,0,25.65,0,1.16-192.3,157.4-347.84,349.98-347.84,0-5.53,0-11.05,0-16.58,0-11.07,0-22.14,0-33.22h0c0-16.67.02-33.33.05-50Z"/>
  <path class="cls-1" d="m772.23,283.48c-8.85,8.87-17.7,17.73-26.55,26.59-2.94,2.94-5.88,5.87-8.82,8.81-11.79,11.79-23.6,23.57-35.42,35.33,49.48,45.68,80.49,111.08,80.49,183.73,0,63.24-23.5,120.99-62.22,165.02,11.75,11.87,23.48,23.77,35.17,35.69h0c1.8,1.84,3.61,3.67,5.41,5.51,9.94,10.03,19.76,20.17,29.5,30.4,57.2-62.3,92.14-145.38,92.14-236.62,0-100.25-42.15-190.65-109.7-254.46Z"/>
  <path class="cls-1" d="m622.52,800.7c-3.26-8.71-6.51-17.42-9.76-26.13h0c-5.83-15.62-11.65-31.25-17.46-46.88-19.91,6.65-41.22,10.26-63.37,10.26-110.46,0-200-89.54-200-200,0-84.45,52.34-156.66,126.34-186-5.65-15.69-11.29-31.38-16.91-47.08-5.62-15.69-11.21-31.39-16.8-47.1-112.65,43.19-192.64,152.33-192.64,280.17,0,165.69,134.31,300,300,300,34.48,0,67.58-5.85,98.42-16.56-2.61-6.89-5.22-13.79-7.83-20.68Z"/>
  <path class="cls-2" d="m560.62,633.74c-9.09,2.72-18.71,4.2-28.69,4.2-55.23,0-100-44.77-100-100,0-41.11,24.82-76.41,60.28-91.78-5.68-15.7-11.32-31.41-16.97-47.13-54.74,22.36-93.31,76.12-93.31,138.9,0,82.84,67.16,150,150,150,16.04,0,31.49-2.53,45.99-7.2-5.78-15.66-11.55-31.33-17.3-47Z"/>
  <circle class="cls-1" cx="531.93" cy="537.94" r="50"/>
  <g>
    <path class="cls-1" d="m1177.07,210.11c-9.72,0-17.42,2.16-23.08,6.48s-8.5,10.26-8.5,17.82,3.55,13.55,10.67,18.49c7.11,4.95,17.05,9.86,29.83,14.72,9.72,3.42,18.04,7.34,24.98,11.74,6.93,4.41,12.64,10.4,17.15,17.96,4.5,7.56,6.75,17.1,6.75,28.62,0,10.44-2.61,19.89-7.83,28.35-5.22,8.46-12.78,15.21-22.68,20.25-9.9,5.04-21.6,7.56-35.1,7.56-11.88,0-23.58-1.85-35.1-5.54-11.52-3.69-21.78-8.77-30.78-15.25l14.04-24.57c6.66,5.04,14.53,9.23,23.62,12.56,9.09,3.33,17.5,5,25.25,5,9.54,0,17.91-2.29,25.11-6.89,7.2-4.59,10.8-11.65,10.8-21.19,0-7.56-3.02-13.86-9.04-18.9-6.03-5.04-14.45-9.63-25.25-13.77-11.16-4.14-20.43-8.24-27.81-12.29-7.38-4.05-13.73-9.72-19.04-17.01-5.31-7.29-7.96-16.42-7.96-27.41,0-16.02,5.44-28.93,16.33-38.75,10.89-9.81,25.25-15.07,43.06-15.79,12.96,0,24.34,1.49,34.16,4.46,9.81,2.97,18.94,7.16,27.4,12.55l-11.88,24.03c-16.92-8.82-31.95-13.23-45.09-13.23Z"/>
    <path class="cls-1" d="m1270.22,231.84c9-15.39,21.19-27.67,36.58-36.86,15.39-9.18,32.17-13.77,50.35-13.77s34.69,4.59,50.09,13.77c15.39,9.18,27.67,21.51,36.86,36.99,9.18,15.48,13.77,32.13,13.77,49.95s-4.55,34.92-13.63,50.22c-9.09,15.3-21.38,27.45-36.86,36.45-15.48,9-32.22,13.5-50.22,13.5s-34.96-4.46-50.35-13.37-27.59-21.01-36.58-36.31c-9-15.3-13.5-32.13-13.5-50.49s4.5-34.7,13.5-50.08Zm28.08,85.18c6.12,10.62,14.44,19.08,24.97,25.38,10.53,6.3,22.09,9.45,34.7,9.45s23.76-3.1,34.02-9.31c10.26-6.21,18.4-14.67,24.44-25.38,6.03-10.71,9.04-22.45,9.04-35.24s-3.06-24.57-9.18-35.37c-6.12-10.8-14.4-19.35-24.84-25.65-10.44-6.3-21.87-9.45-34.29-9.45s-24.08,3.15-34.42,9.45c-10.35,6.3-18.54,14.85-24.57,25.65-6.03,10.8-9.04,22.59-9.04,35.37s3.06,24.48,9.18,35.1Z"/>
    <path class="cls-1" d="m1611.77,183.38v30.24h-87.75v55.35h76.41v29.97h-76.41v81h-31.59v-196.56h119.34Z"/>
    <path class="cls-1" d="m1762.7,183.38v30.24h-50.76v166.32h-31.32v-166.32h-49.41v-30.24h131.49Z"/>
    <path class="cls-1" d="m1955.47,388.58l-46.44-117.18-52.11,117.72-78.57-204.66h36.72l45.9,131.22,32.67-83.7-18.9-47.52h31.05l50.49,127.44,42.12-127.44h33.75l-76.68,204.12Z"/>
    <path class="cls-1" d="m2137.19,333.77h-71.55l-18.9,46.17h-31.05l86.94-204.66h1.89l86.94,204.66h-36.18l-18.09-46.17Zm-10.53-27l-24.57-62.1-25.38,62.1h49.95Z"/>
    <path class="cls-1" d="m2325.1,379.94l-44.28-68.31h-31.59v68.31h-31.59v-196.56h55.35c21.96,0,39.56,5.58,52.79,16.74,13.23,11.16,19.85,26.64,19.85,46.44,0,12.06-2.57,23.27-7.7,33.62-5.13,10.35-13.19,18.32-24.17,23.89l47.79,75.87h-36.45Zm-75.87-98.55h28.08c12.6,0,21.74-3.46,27.41-10.39,5.67-6.93,8.5-14.72,8.5-23.36,0-5.04-1.08-10.12-3.24-15.25s-5.85-9.54-11.07-13.23c-5.22-3.69-12.06-5.53-20.52-5.53h-29.16v67.77Z"/>
    <path class="cls-1" d="m2521.66,183.38v30.24h-98.82v52.38h88.02v30.24h-88.02v53.46h102.6v30.24h-134.19v-196.56h130.41Z"/>
    <path class="cls-1" d="m1177.07,466.11c-9.72,0-17.42,2.16-23.08,6.48-5.67,4.32-8.5,10.26-8.5,17.82s3.55,13.55,10.67,18.5c7.11,4.95,17.05,9.85,29.83,14.71,9.72,3.42,18.04,7.34,24.98,11.75,6.93,4.41,12.64,10.39,17.15,17.96,4.5,7.56,6.75,17.1,6.75,28.62,0,10.44-2.61,19.89-7.83,28.35-5.22,8.46-12.78,15.21-22.68,20.25-9.9,5.04-21.6,7.56-35.1,7.56-11.88,0-23.58-1.85-35.1-5.54-11.52-3.69-21.78-8.78-30.78-15.25l14.04-24.57c6.66,5.04,14.53,9.23,23.62,12.56,9.09,3.33,17.5,4.99,25.25,4.99,9.54,0,17.91-2.29,25.11-6.88,7.2-4.59,10.8-11.65,10.8-21.2,0-7.56-3.02-13.86-9.04-18.9-6.03-5.04-14.45-9.63-25.25-13.77-11.16-4.14-20.43-8.23-27.81-12.29-7.38-4.05-13.73-9.72-19.04-17.01-5.31-7.29-7.96-16.42-7.96-27.41,0-16.02,5.44-28.93,16.33-38.75,10.89-9.81,25.25-15.07,43.06-15.79,12.96,0,24.34,1.49,34.16,4.46,9.81,2.97,18.94,7.16,27.4,12.56l-11.88,24.03c-16.92-8.82-31.95-13.23-45.09-13.23Z"/>
    <path class="cls-1" d="m1315.31,586.26c3.96,6.48,9.36,11.66,16.2,15.53,6.84,3.87,14.31,5.81,22.41,5.81s16.15-1.89,23.08-5.67c6.93-3.78,12.37-8.91,16.33-15.39,3.96-6.48,5.94-13.59,5.94-21.33v-125.82h31.05v126.63c0,14.04-3.38,26.51-10.12,37.4-6.75,10.89-15.98,19.4-27.67,25.52-11.7,6.12-24.57,9.18-38.61,9.18s-26.86-3.06-38.48-9.18c-11.61-6.12-20.75-14.62-27.4-25.52-6.66-10.89-9.99-23.36-9.99-37.4v-126.63h31.32v125.82c0,7.56,1.98,14.58,5.94,21.06Z"/>
    <path class="cls-1" d="m1544,466.11c-9.72,0-17.42,2.16-23.08,6.48-5.67,4.32-8.5,10.26-8.5,17.82s3.55,13.55,10.67,18.5c7.11,4.95,17.05,9.85,29.83,14.71,9.72,3.42,18.04,7.34,24.97,11.75,6.93,4.41,12.64,10.39,17.15,17.96,4.5,7.56,6.75,17.1,6.75,28.62,0,10.44-2.61,19.89-7.83,28.35-5.22,8.46-12.78,15.21-22.68,20.25-9.9,5.04-21.6,7.56-35.1,7.56-11.88,0-23.58-1.85-35.1-5.54-11.52-3.69-21.78-8.78-30.78-15.25l14.04-24.57c6.66,5.04,14.53,9.23,23.62,12.56,9.09,3.33,17.5,4.99,25.25,4.99,9.54,0,17.91-2.29,25.11-6.88,7.2-4.59,10.8-11.65,10.8-21.2,0-7.56-3.02-13.86-9.04-18.9-6.03-5.04-14.45-9.63-25.25-13.77-11.16-4.14-20.43-8.23-27.81-12.29-7.38-4.05-13.73-9.72-19.03-17.01-5.31-7.29-7.97-16.42-7.97-27.41,0-16.02,5.44-28.93,16.33-38.75,10.89-9.81,25.25-15.07,43.07-15.79,12.96,0,24.34,1.49,34.16,4.46,9.81,2.97,18.94,7.16,27.4,12.56l-11.88,24.03c-16.92-8.82-31.95-13.23-45.09-13.23Z"/>
    <path class="cls-1" d="m1764.59,439.38v30.24h-50.76v166.32h-31.32v-166.32h-49.41v-30.24h131.49Z"/>
    <path class="cls-1" d="m1894.73,589.77h-71.55l-18.9,46.17h-31.05l86.94-204.66h1.89l86.94,204.66h-36.18l-18.09-46.17Zm-10.53-27l-24.57-62.1-25.38,62.1h49.95Z"/>
    <path class="cls-1" d="m2018.92,439.38v196.56h-31.59v-196.56h31.59Z"/>
    <path class="cls-1" d="m2251.39,439.38v203.58h-.81l-141.75-137.43.81,130.41h-31.86v-203.31h1.62l141.21,139.05-.54-132.3h31.32Z"/>
    <path class="cls-1" d="m2411.5,589.77h-71.55l-18.9,46.17h-31.05l86.94-204.66h1.89l86.94,204.66h-36.18l-18.09-46.17Zm-10.53-27l-24.57-62.1-25.38,62.1h49.95Z"/>
    <path class="cls-1" d="m2623.04,551.97c6.21,7.92,9.32,17.1,9.32,27.54,0,19.08-6.44,33.26-19.3,42.53-12.87,9.27-28.75,13.91-47.66,13.91h-61.29v-196.56h53.73c20.52,0,36.45,4.19,47.79,12.56,11.34,8.37,17.01,20.65,17.01,36.85,0,10.26-2.21,19.13-6.62,26.59-4.41,7.47-10.67,13.46-18.76,17.96,10.98,4.5,19.57,10.71,25.78,18.63Zm-87.34-28.89h27.27c9,0,15.79-2.61,20.38-7.83,4.59-5.22,6.88-11.79,6.88-19.71,0-8.64-2.75-15.12-8.24-19.44-5.49-4.32-13.09-6.48-22.81-6.48h-23.49v53.46Zm54.27,76.82c6.66-4.59,9.99-11.29,9.99-20.12,0-9.36-3.64-16.11-10.93-20.25-7.29-4.14-16.33-6.21-27.13-6.21h-26.19v53.46h28.35c10.62,0,19.26-2.29,25.92-6.88Z"/>
    <path class="cls-1" d="m2710.65,439.38v196.56h-31.59v-196.56h31.59Z"/>
    <path class="cls-1" d="m2801.1,439.38v166.32h96.93v30.24h-128.52v-196.56h31.59Z"/>
    <path class="cls-1" d="m2976.06,439.38v196.56h-31.59v-196.56h31.59Z"/>
    <path class="cls-1" d="m3152.36,439.38v30.24h-50.76v166.32h-31.32v-166.32h-49.41v-30.24h131.49Z"/>
    <path class="cls-1" d="m3354.05,439.38l-73.71,132.84v63.72h-31.32v-63.72l-72.63-132.84h38.61l50.76,96.93,49.68-96.93h38.61Z"/>
    <path class="cls-1" d="m1119.38,891.94v-25.54h48.64v-148.05h-48.64v-25.54h127.68v25.54h-48.64v148.05h48.64v25.54h-127.68Z"/>
    <path class="cls-1" d="m1460.74,695.38v203.58h-.81l-141.75-137.43.81,130.41h-31.86v-203.31h1.62l141.21,139.05-.54-132.3h31.32Z"/>
    <path class="cls-1" d="m1560.37,722.11c-9.72,0-17.42,2.16-23.08,6.48-5.67,4.32-8.5,10.26-8.5,17.82s3.55,13.55,10.67,18.5c7.11,4.95,17.05,9.86,29.83,14.71,9.72,3.42,18.04,7.34,24.97,11.75,6.93,4.41,12.64,10.4,17.15,17.96,4.5,7.56,6.75,17.1,6.75,28.62,0,10.44-2.61,19.89-7.83,28.35-5.22,8.46-12.78,15.21-22.68,20.25-9.9,5.04-21.6,7.56-35.1,7.56-11.88,0-23.58-1.85-35.1-5.54-11.52-3.69-21.78-8.78-30.78-15.25l14.04-24.57c6.66,5.04,14.53,9.23,23.62,12.56,9.09,3.33,17.5,4.99,25.25,4.99,9.54,0,17.91-2.29,25.11-6.88,7.2-4.59,10.8-11.65,10.8-21.2,0-7.56-3.02-13.86-9.04-18.9-6.03-5.04-14.45-9.63-25.25-13.77-11.16-4.14-20.43-8.23-27.81-12.28-7.38-4.05-13.73-9.72-19.03-17.01-5.31-7.29-7.97-16.42-7.97-27.4,0-16.02,5.44-28.93,16.33-38.75,10.89-9.81,25.25-15.07,43.07-15.79,12.96,0,24.34,1.48,34.16,4.46,9.81,2.97,18.94,7.15,27.4,12.55l-11.88,24.03c-16.92-8.82-31.95-13.23-45.09-13.23Z"/>
    <path class="cls-1" d="m1763.41,695.38v30.24h-50.76v166.32h-31.32v-166.32h-49.41v-30.24h131.49Z"/>
    <path class="cls-1" d="m1822.27,695.38v196.56h-31.59v-196.56h31.59Z"/>
    <path class="cls-1" d="m1981.03,695.38v30.24h-50.76v166.32h-31.32v-166.32h-49.41v-30.24h131.49Z"/>
    <path class="cls-1" d="m2042.58,842.26c3.96,6.48,9.36,11.66,16.2,15.52,6.84,3.87,14.31,5.81,22.41,5.81s16.15-1.89,23.08-5.67c6.93-3.78,12.37-8.91,16.33-15.39,3.96-6.48,5.94-13.59,5.94-21.33v-125.82h31.05v126.63c0,14.04-3.38,26.51-10.12,37.39-6.75,10.89-15.98,19.4-27.67,25.52-11.7,6.12-24.57,9.18-38.61,9.18s-26.87-3.06-38.48-9.18c-11.61-6.12-20.75-14.62-27.41-25.52-6.66-10.89-9.99-23.35-9.99-37.39v-126.63h31.32v125.82c0,7.56,1.98,14.58,5.94,21.06Z"/>
    <path class="cls-1" d="m2313.12,695.38v30.24h-50.76v166.32h-31.32v-166.32h-49.41v-30.24h131.49Z"/>
    <path class="cls-1" d="m2470.8,695.38v30.24h-98.82v52.38h88.02v30.24h-88.02v53.46h102.6v30.24h-134.19v-196.56h130.41Z"/>
  </g>
</svg>