<svg aria-labelledby="site-header-logo" class="c-site-header__logo u-dis-b is-mobile-animated" preserveAspectRatio="xMinYMid" role="img" viewBox="0 0 80 80"><title id="site-header-logo">Wellcome home</title><path d="M27.68 67.106c-.22.334-.687.493-1.103.493-.828 0-1.28-.574-1.348-1.397h4.73v.904h-2.28zm-1.129-3.457c.741 0 1.221.533 1.221 1.225h-2.53c.128-.801.581-1.225 1.31-1.225zm3.408.733C29.499 62.847 28.367 62 26.435 62c-1.492 0-2.628.757-3.204 1.873l.528-1.7h-2.65l-.945 4.294h-.052l-.91-4.293h-2.387l-.859 4.293h-.038l-1.013-4.293h-2.647l2.102 6.901h2.61l1.012-4.269h.037l.987 4.27h2.61l1.239-3.99a4.089 4.089 0 0 0-.043.559c0 2.299 1.587 3.603 3.74 3.603 1.481 0 2.819-.614 3.407-1.932v1.76h2.53V59.58h-2.53v4.802zm34.586-.733c.74 0 1.217.533 1.217 1.225h-2.529c.131-.801.586-1.225 1.312-1.225zm.026 3.95c-.833 0-1.284-.574-1.349-1.397h4.97C68.18 63.529 67.025 62 64.429 62c-1.806 0-3.09 1.11-3.488 2.623v-.294c0-1.119-.583-2.329-2.3-2.329-.996 0-1.61.358-1.96.703-.036.042-.076.082-.102.12-.13.136-.195.228-.247.281-.323-.718-1.104-1.104-1.817-1.104-.933 0-1.687.293-2.218 1.104h-.04v-.93h-2.454v6.901h2.533v-3.737c0-.731.22-1.276.895-1.276.818 0 .868.624.868 1.276v3.737h2.546v-3.737c0-.731.22-1.276.893-1.276.805 0 .87.624.87 1.276v3.737h2.533v-2.362c.418 1.629 1.811 2.535 3.605 2.535 1.559 0 2.96-.677 3.492-2.142h-2.365c-.218.334-.686.493-1.101.493zm-18.441-.227c-1 0-1.143-1.01-1.143-1.755 0-.743.144-1.742 1.143-1.742.997 0 1.14.999 1.14 1.742 0 .745-.143 1.755-1.14 1.755zm-5.708-1.026c-.066.56-.414 1.026-1.077 1.026-.818 0-1.117-.637-1.117-1.743 0-.838.207-1.754 1.168-1.754.6 0 .96.4.96 1.092h2.146a4.542 4.542 0 0 0 .012 1.379h-2.092zM46.13 62c-1.89 0-3.007.952-3.45 2.23-.372-1.552-1.79-2.23-3.284-2.23-1.88 0-3.307 1.116-3.631 2.86v-5.28h-2.532v9.495h2.532v-2.603c.319 1.83 1.703 2.776 3.553 2.776 1.583 0 2.887-.786 3.37-2.219.45 1.272 1.563 2.219 3.442 2.219 2.53 0 3.672-1.715 3.672-3.63 0-1.914-1.142-3.618-3.672-3.618zm9.42-48.077l-5.331 20.253A2876.358 2876.358 0 0 0 46.01 18.32c-.815-2.968-2.79-4.394-5.705-4.394-3.155 0-5.437-.003-5.437-.003h-.025l-5.335 20.27-5.335-20.27-11.965 1.39s6.572 25.022 7.773 29.562c.768 2.906 2.309 4.87 5.246 5.667 3.037.825 9.291 2.688 9.291 2.688l5.344-20.327c1.62 6.16 2.86 10.688 3.346 12.467.726 2.659 2.472 4.352 5.51 5.245 4.11 1.208 8.823 2.615 8.823 2.615l9.992-37.99-11.984-1.317zM0 80h79.744V.256H0V80z" fill="currentColor" fill-rule="evenodd"></path></svg>